. 
  
http://www.torrenting.com/        :     Greatest Movie Tracker on The Net!!!
 
http://www.Torrenting.com          :     Once & For all ;)


               www . Torrenting . Com 

(((((((((((((= Enjoy No RAR releases =))))))))))))))))))))


...................................NFO:....................................

.[img]http://img202.imageshack.us/img202/5123/unknownblunews.jpg[/img]

[color=blue][size=5][b]Unknown.2011.BDRip.XVID.AC3.HQ.Hive-CM8[/b][/size][/color]


[b]Thx Hive

CM8 Doing It Right The First Time :D

Source Bluray

Video: 720x304 @bitrate 1800 2pass
Audio: English DTS to AC3 5.1 @448
Sample: yes included
Subs: yes english in srt /subs[/b]


[url]http://www.imdb.com/title/tt1401152/[/url]


General
Complete name                    : Unknown.2011.BDRip.XVID.AC3.HQ.Hive-CM8.avi
Format                           : AVI
Format/Info                      : Audio Video Interleave
File size                        : 1.79 GiB
Duration                         : 1h 53mn
Overall bit rate                 : 2 259 Kbps
Writing application              : Nandub v1.0rc2
Writing library                  : Nandub build 1853/release

Video
ID                               : 0
Format                           : MPEG-4 Visual
Format profile                   : Advanced Simple@L5
Format settings, BVOP            : 1
Format settings, QPel            : Yes
Format settings, GMC             : No warppoints
Format settings, Matrix          : Default (H.263)
Muxing mode                      : Packed bitstream
Codec ID                         : XVID
Codec ID/Hint                    : XviD
Duration                         : 1h 53mn
Bit rate                         : 1 802 Kbps
Width                            : 720 pixels
Height                           : 304 pixels
Display aspect ratio             : 2.40:1
Frame rate                       : 23.976 fps
Color space                      : YUV
Chroma subsampling               : 4:2:0
Bit depth                        : 8 bits
Scan type                        : Progressive
Compression mode                 : Lossy
Bits/(Pixel*Frame)               : 0.343
Stream size                      : 1.42 GiB (80%)
Writing library                  : XviD 1.2.1 (UTC 2008-12-04)

Audio
ID                               : 1
Format                           : AC-3
Format/Info                      : Audio Coding 3
Mode extension                   : CM (complete main)
Codec ID                         : 2000
Duration                         : 1h 53mn
Bit rate mode                    : Constant
Bit rate                         : 448 Kbps
Channel(s)                       : 6 channels
Channel positions                : Front: L C R, Side: L R, LFE
Sampling rate                    : 48.0 KHz
Bit depth                        : 16 bits
Compression mode                 : Lossy
Stream size                      : 363 MiB (20%)
Alignment                        : Split accross interleaves
Interleave, duration             : 42 ms (1.00 video frame)
Interleave, preload duration     : 500 ms


Liam Neeson	 ... 	Dr. Martin Harris
Diane Kruger	... 	Gina
January Jones	... 	Elizabeth Harris
Aidan Quinn	... 	The Other Martin Harris
Bruno Ganz	... 	Ernst Jrgen
Frank Langella	... 	Rodney Cole


A man awakens from a coma, only to discover that someone has taken on his identity and that
no one, (not even his wife), believes him. With the help of a young woman, he sets out to prove who he is.  

 

[img]http://img52.imageshack.us/img52/4746/34214574.png[/img]
[img]http://img228.imageshack.us/img228/3175/unun.png[/img]
[img]http://img807.imageshack.us/img807/3378/ununun.png[/img]
[img]http://img696.imageshack.us/img696/462/unununun.png[/img]
[img]http://img269.imageshack.us/img269/7228/unuunnunun.png[/img]
[img]http://img89.imageshack.us/img89/4873/unuununuunnnunun.png[/img]
[img]http://img542.imageshack.us/img542/2171/unuununuunnuununnnunun.png[/img]
[img]http://img805.imageshack.us/img805/6806/unuununuununnnunun.png[/img]
[img]http://img860.imageshack.us/img860/3475/unuunuunnnunun.png[/img]
[img]http://img34.imageshack.us/img34/7987/unuunuunnuununnnunun.png[/img]
[img]http://img853.imageshack.us/img853/7572/unuuunnnunun.png[/img]




covers+labels

[img]http://img851.imageshack.us/img851/6425/unknown2011cdcover52899.jpg[/img]

[img]http://img850.imageshack.us/img850/7817/unknown2011frontcover54.jpg[/img]

[img]http://img832.imageshack.us/img832/9154/unknown2011cd.jpg[/img]





Greetz

ViSiON,SANTi,MAGNET,THC,T0XiC,iNK,LKRG,IMAGiNE,WBZ,FLAWL3SS,NOVA
Vik,OneTwo,Rapeseed,D2U,SAFC,goldadvance,MEMORY100,KaN1vE,Unevano,Pinnz,Wayne,Mr Hive
and all P2P groups 
Great Work Guys :D

FYS

CM8@hushmail.com